<?xml version="1.0"?>
<svg xmlns="http://www.w3.org/2000/svg" xmlns:xlink="http://www.w3.org/1999/xlink" xmlns:svgjs="http://svgjs.com/svgjs" version="1.1" width="512" height="512" x="0" y="0" viewBox="0 0 24 24" style="enable-background:new 0 0 512 512" xml:space="preserve" class=""><g><path xmlns="http://www.w3.org/2000/svg" d="m22.902 14.428-.006-.007-1.406-1.291c.043-.38.064-.759.064-1.13s-.021-.75-.064-1.13l1.412-1.298c.586-.551.72-1.425.322-2.134l-1.659-2.87c-.394-.698-1.241-1.03-2.023-.786l-1.822.574c-.613-.463-1.268-.843-1.954-1.135l-.422-1.873c-.175-.781-.882-1.348-1.681-1.348h-3.326c-.799 0-1.506.567-1.681 1.348l-.422 1.874c-.686.292-1.34.672-1.954 1.134l-1.824-.575c-.778-.242-1.628.088-2.018.78l-1.668 2.885c-.392.701-.258 1.575.334 2.133l1.406 1.291c-.043.38-.065.759-.065 1.13s.021.75.064 1.13l-1.412 1.298c-.586.551-.72 1.425-.322 2.134l1.659 2.87c.394.698 1.243 1.03 2.023.786l1.822-.574c.613.463 1.268.843 1.954 1.135l.422 1.873c.176.781.883 1.348 1.682 1.348h3.326c.799 0 1.506-.567 1.681-1.348l.422-1.874c.687-.292 1.341-.672 1.954-1.135l1.824.575c.78.245 1.628-.087 2.018-.78l1.668-2.885c.392-.7.258-1.574-.328-2.125z" fill="#1b4f68" data-original="#607d8b" style="" class=""/><path xmlns="http://www.w3.org/2000/svg" d="m12 0h-1.663c-.799 0-1.506.567-1.681 1.348l-.422 1.874c-.686.292-1.34.672-1.954 1.134l-1.824-.575c-.172-.053-.347-.079-.52-.079-.611 0-1.194.32-1.498.859l-1.668 2.885c-.392.701-.258 1.575.334 2.133l1.406 1.291c-.043.38-.065.759-.065 1.13s.021.75.064 1.13l-1.412 1.298c-.586.551-.72 1.425-.322 2.134l1.659 2.87c.307.544.89.866 1.502.866.173 0 .349-.026.521-.08l1.822-.574c.613.463 1.268.843 1.954 1.135l.422 1.873c.176.781.883 1.348 1.682 1.348h1.663z" fill="#1b4f68" data-original="#546d79" style="" class=""/><g xmlns="http://www.w3.org/2000/svg" fill="#fafafa"><path d="m11.081 15.981c-.403-.093-.655-.496-.562-.899l1.5-6.5c.093-.405.501-.654.899-.563.403.093.655.496.562.899l-1.5 6.5c-.09.394-.482.657-.899.563z" fill="#fafafa" data-original="#fafafa" style="" class=""/><path d="m15.25 15c-.205 0-.409-.083-.558-.248-.277-.308-.252-.782.056-1.06l1.881-1.692-1.881-1.692c-.308-.277-.333-.751-.056-1.06.278-.307.752-.332 1.06-.056l2.5 2.25c.158.143.248.346.248.558s-.09.415-.248.558l-2.5 2.25c-.144.129-.323.192-.502.192z" fill="#fafafa" data-original="#fafafa" style="" class=""/><path d="m8.75 15c-.179 0-.358-.063-.502-.192l-2.5-2.25c-.158-.143-.248-.346-.248-.558s.09-.415.248-.558l2.5-2.25c.308-.277.781-.252 1.06.056.277.308.252.782-.056 1.06l-1.881 1.692 1.881 1.692c.308.277.333.751.056 1.06-.149.165-.353.248-.558.248z" fill="#fafafa" data-original="#fafafa" style="" class=""/></g><path xmlns="http://www.w3.org/2000/svg" d="m12.769 12h-1.539l-.711 3.082c-.094.403.158.806.562.899.057.013.114.019.17.019.349 0 .651-.242.73-.582z" fill="#dadada" data-original="#dadada" style="" class=""/><path xmlns="http://www.w3.org/2000/svg" d="m18.5 12h-1.871l-1.881 1.692c-.308.277-.333.751-.056 1.06.149.165.353.248.558.248.179 0 .358-.063.502-.192l2.5-2.25c.158-.143.248-.346.248-.558z" fill="#dadada" data-original="#dadada" style="" class=""/><path xmlns="http://www.w3.org/2000/svg" d="m7.371 12h-1.871c0 .212.09.415.248.558l2.5 2.25c.144.129.323.192.502.192.205 0 .409-.083.558-.248.277-.308.252-.782-.056-1.06z" fill="#dadada" data-original="#dadada" style="" class=""/></g></svg>
